<?xml version="1.0" encoding="UTF-8" standalone="no"?>
<svg
   xmlns:dc="http://purl.org/dc/elements/1.1/"
   xmlns:cc="http://creativecommons.org/ns#"
   xmlns:rdf="http://www.w3.org/1999/02/22-rdf-syntax-ns#"
   xmlns:svg="http://www.w3.org/2000/svg"
   xmlns="http://www.w3.org/2000/svg"
   version="1.1"
   id="svg109"
   xml:space="preserve"
   width="43.438667"
   height="42.366489"
   viewBox="0 0 43.438667 42.366489"><metadata
     id="metadata115"><rdf:RDF><cc:Work
         rdf:about=""><dc:format>image/svg+xml</dc:format><dc:type
           rdf:resource="http://purl.org/dc/dcmitype/StillImage" /><dc:title></dc:title></cc:Work></rdf:RDF></metadata><defs
     id="defs113"><clipPath
       clipPathUnits="userSpaceOnUse"
       id="clipPath127"><path
         d="M 0,551.986 H 530.973 V 0 H 0 Z"
         id="path125" /></clipPath></defs><g
     style="fill:#8c8c8c;fill-opacity:1"
     id="layer1"
     transform="translate(-181.7604,-143.25414)"><path
       id="path131"
       style="fill:#8c8c8c;fill-opacity:1;fill-rule:evenodd;stroke:none;stroke-width:1.33333325"
       d="m 203.47773,143.25414 c -11.99333,0 -21.71733,9.724 -21.71733,21.72 0,9.596 6.22266,17.736 14.85333,20.60933 1.08667,0.19867 1.48267,-0.472 1.48267,-1.048 0,-0.51466 -0.0187,-1.88133 -0.0293,-3.69333 -6.04133,1.312 -7.316,-2.912 -7.316,-2.912 -0.988,-2.508 -2.412,-3.176 -2.412,-3.176 -1.972,-1.348 0.14934,-1.32133 0.14934,-1.32133 2.18,0.15466 3.32666,2.23866 3.32666,2.23866 1.93734,3.31867 5.084,2.36 6.32134,1.80534 0.19733,-1.404 0.75733,-2.36134 1.37866,-2.904 -4.82266,-0.548 -9.89333,-2.412 -9.89333,-10.73467 0,-2.37067 0.84667,-4.30933 2.236,-5.828 -0.224,-0.54933 -0.96933,-2.75733 0.212,-5.748 0,0 1.824,-0.584 5.97333,2.22667 1.732,-0.48134 3.59067,-0.72267 5.43734,-0.73067 1.844,0.008 3.70266,0.24933 5.43733,0.73067 4.14667,-2.81067 5.96667,-2.22667 5.96667,-2.22667 1.18533,2.99067 0.44,5.19867 0.216,5.748 1.392,1.51867 2.23333,3.45733 2.23333,5.828 0,8.344 -5.07867,10.18 -9.91733,10.71733 0.78,0.67067 1.47466,1.996 1.47466,4.02267 0,2.90267 -0.0267,5.24533 -0.0267,5.95733 0,0.58134 0.39066,1.25734 1.49333,1.04534 8.624,-2.87867 14.84133,-11.01334 14.84133,-20.60667 0,-11.996 -9.72533,-21.72 -21.72133,-21.72" /></g></svg>